{
    "asset": {
        "copyright": "2019 (c) Adobe Inc.",
        "generator": "Adobe Dimension - 0897bb3786688dd8ac0e16e7ca439aa83b5dca11",
        "version": "2.0"
    },
    "accessors": [
        {
            "bufferView": 0,
            "componentType": 5126,
            "count": 2868,
            "type": "VEC3",
            "max": [
                0.08112304657697678,
                0.09305664151906967,
                0.0
            ],
            "min": [
                0.01015624962747097,
                -0.0016503905644640327,
                -0.009999999776482582
            ]
        },
        {
            "bufferView": 1,
            "componentType": 5126,
            "count": 2868,
            "type": "VEC3"
        },
        {
            "bufferView": 2,
            "componentType": 5126,
            "count": 2868,
            "type": "VEC2"
        },
        {
            "bufferView": 3,
            "componentType": 5125,
            "count": 1434,
            "type": "SCALAR",
            "max": [
                2867.0
            ],
            "min": [
                2.0
            ]
        },
        {
            "bufferView": 4,
            "componentType": 5125,
            "count": 717,
            "type": "SCALAR",
            "max": [
                2851.0
            ],
            "min": [
                1269.0
            ]
        },
        {
            "bufferView": 5,
            "componentType": 5125,
            "count": 717,
            "type": "SCALAR",
            "max": [
                1559.0
            ],
            "min": [
                0.0
            ]
        },
        {
            "bufferView": 6,
            "componentType": 5126,
            "count": 4800,
            "type": "VEC3",
            "max": [
                0.09699218720197678,
                0.09470702707767487,
                0.0
            ],
            "min": [
                0.0058398437686264519,
                -0.0016503905644640327,
                -0.009999999776482582
            ]
        },
        {
            "bufferView": 7,
            "componentType": 5126,
            "count": 4800,
            "type": "VEC3"
        },
        {
            "bufferView": 8,
            "componentType": 5126,
            "count": 4800,
            "type": "VEC2"
        },
        {
            "bufferView": 9,
            "componentType": 5125,
            "count": 2400,
            "type": "SCALAR",
            "max": [
                4799.0
            ],
            "min": [
                0.0
            ]
        },
        {
            "bufferView": 10,
            "componentType": 5125,
            "count": 1200,
            "type": "SCALAR",
            "max": [
                4699.0
            ],
            "min": [
                2170.0
            ]
        },
        {
            "bufferView": 11,
            "componentType": 5125,
            "count": 1200,
            "type": "SCALAR",
            "max": [
                2560.0
            ],
            "min": [
                1.0
            ]
        },
        {
            "bufferView": 12,
            "componentType": 5126,
            "count": 2820,
            "type": "VEC3",
            "max": [
                0.08823242038488388,
                0.09470702707767487,
                0.0
            ],
            "min": [
                0.010410156100988388,
                -0.0016503905644640327,
                -0.009999999776482582
            ]
        },
        {
            "bufferView": 13,
            "componentType": 5126,
            "count": 2820,
            "type": "VEC3"
        },
        {
            "bufferView": 14,
            "componentType": 5126,
            "count": 2820,
            "type": "VEC2"
        },
        {
            "bufferView": 15,
            "componentType": 5125,
            "count": 1416,
            "type": "SCALAR",
            "max": [
                2819.0
            ],
            "min": [
                0.0
            ]
        },
        {
            "bufferView": 16,
            "componentType": 5125,
            "count": 702,
            "type": "SCALAR",
            "max": [
                2752.0
            ],
            "min": [
                1231.0
            ]
        },
        {
            "bufferView": 17,
            "componentType": 5125,
            "count": 702,
            "type": "SCALAR",
            "max": [
                1544.0
            ],
            "min": [
                3.0
            ]
        },
        {
            "bufferView": 18,
            "componentType": 5126,
            "count": 18792,
            "type": "VEC3",
            "max": [
                0.019828740507364274,
                0.1903141736984253,
                0.019439369440078737
            ],
            "min": [
                -0.019049998372793199,
                0.17739678919315339,
                -0.019439369440078737
            ]
        },
        {
            "bufferView": 19,
            "componentType": 5126,
            "count": 18792,
            "type": "VEC3"
        },
        {
            "bufferView": 20,
            "componentType": 5126,
            "count": 18792,
            "type": "VEC2"
        },
        {
            "bufferView": 21,
            "componentType": 5125,
            "count": 106872,
            "type": "SCALAR",
            "max": [
                18791.0
            ],
            "min": [
                0.0
            ]
        },
        {
            "bufferView": 22,
            "componentType": 5126,
            "count": 40364,
            "type": "VEC3",
            "max": [
                0.029897170141339303,
                0.1878359168767929,
                0.029897158965468408
            ],
            "min": [
                -0.029897170141339303,
                0.0007089099963195622,
                -0.029897158965468408
            ]
        },
        {
            "bufferView": 23,
            "componentType": 5126,
            "count": 40364,
            "type": "VEC3"
        },
        {
            "bufferView": 24,
            "componentType": 5126,
            "count": 40364,
            "type": "VEC2"
        },
        {
            "bufferView": 25,
            "componentType": 5125,
            "count": 238272,
            "type": "SCALAR",
            "max": [
                40363.0
            ],
            "min": [
                0.0
            ]
        },
        {
            "bufferView": 26,
            "componentType": 5126,
            "count": 715,
            "type": "VEC3",
            "max": [
                0.01985483057796955,
                0.17733992636203767,
                0.019465459510684015
            ],
            "min": [
                -0.019076090306043626,
                0.1741378754377365,
                -0.019465459510684015
            ]
        },
        {
            "bufferView": 27,
            "componentType": 5126,
            "count": 715,
            "type": "VEC3"
        },
        {
            "bufferView": 28,
            "componentType": 5126,
            "count": 715,
            "type": "VEC2"
        },
        {
            "bufferView": 29,
            "componentType": 5125,
            "count": 3840,
            "type": "SCALAR",
            "max": [
                714.0
            ],
            "min": [
                0.0
            ]
        }
    ],
    "bufferViews": [
        {
            "buffer": 0,
            "byteOffset": 0,
            "byteLength": 34416,
            "target": 34962
        },
        {
            "buffer": 0,
            "byteOffset": 34416,
            "byteLength": 34416,
            "target": 34962
        },
        {
            "buffer": 0,
            "byteOffset": 68832,
            "byteLength": 22944,
            "target": 34962
        },
        {
            "buffer": 0,
            "byteOffset": 91776,
            "byteLength": 5736,
            "target": 34963
        },
        {
            "buffer": 0,
            "byteOffset": 97512,
            "byteLength": 2868,
            "target": 34963
        },
        {
            "buffer": 0,
            "byteOffset": 100380,
            "byteLength": 2868,
            "target": 34963
        },
        {
            "buffer": 0,
            "byteOffset": 103248,
            "byteLength": 57600,
            "target": 34962
        },
        {
            "buffer": 0,
            "byteOffset": 160848,
            "byteLength": 57600,
            "target": 34962
        },
        {
            "buffer": 0,
            "byteOffset": 218448,
            "byteLength": 38400,
            "target": 34962
        },
        {
            "buffer": 0,
            "byteOffset": 256848,
            "byteLength": 9600,
            "target": 34963
        },
        {
            "buffer": 0,
            "byteOffset": 266448,
            "byteLength": 4800,
            "target": 34963
        },
        {
            "buffer": 0,
            "byteOffset": 271248,
            "byteLength": 4800,
            "target": 34963
        },
        {
            "buffer": 0,
            "byteOffset": 276048,
            "byteLength": 33840,
            "target": 34962
        },
        {
            "buffer": 0,
            "byteOffset": 309888,
            "byteLength": 33840,
            "target": 34962
        },
        {
            "buffer": 0,
            "byteOffset": 343728,
            "byteLength": 22560,
            "target": 34962
        },
        {
            "buffer": 0,
            "byteOffset": 366288,
            "byteLength": 5664,
            "target": 34963
        },
        {
            "buffer": 0,
            "byteOffset": 371952,
            "byteLength": 2808,
            "target": 34963
        },
        {
            "buffer": 0,
            "byteOffset": 374760,
            "byteLength": 2808,
            "target": 34963
        },
        {
            "buffer": 0,
            "byteOffset": 377568,
            "byteLength": 225504,
            "target": 34962
        },
        {
            "buffer": 0,
            "byteOffset": 603072,
            "byteLength": 225504,
            "target": 34962
        },
        {
            "buffer": 0,
            "byteOffset": 828576,
            "byteLength": 150336,
            "target": 34962
        },
        {
            "buffer": 0,
            "byteOffset": 978912,
            "byteLength": 427488,
            "target": 34963
        },
        {
            "buffer": 0,
            "byteOffset": 1406400,
            "byteLength": 484368,
            "target": 34962
        },
        {
            "buffer": 0,
            "byteOffset": 1890768,
            "byteLength": 484368,
            "target": 34962
        },
        {
            "buffer": 0,
            "byteOffset": 2375136,
            "byteLength": 322912,
            "target": 34962
        },
        {
            "buffer": 0,
            "byteOffset": 2698048,
            "byteLength": 953088,
            "target": 34963
        },
        {
            "buffer": 0,
            "byteOffset": 3651136,
            "byteLength": 8580,
            "target": 34962
        },
        {
            "buffer": 0,
            "byteOffset": 3659716,
            "byteLength": 8580,
            "target": 34962
        },
        {
            "buffer": 0,
            "byteOffset": 3668296,
            "byteLength": 5720,
            "target": 34962
        },
        {
            "buffer": 0,
            "byteOffset": 3674016,
            "byteLength": 15360,
            "target": 34963
        }
    ],
    "buffers": [
        {
            "byteLength": 3689376,
            "uri": "npo_binary.bin"
        }
    ],
    "cameras": [
        {
            "perspective": {
                "znear": 0.000010000000656873454,
                "yfov": 0.8765124678611755,
                "zfar": 2.0,
                "aspectRatio": 1.3333333730697632
            },
            "type": "perspective",
            "name": "render_camera"
        },
        {
            "perspective": {
                "znear": 0.000010000000656873454,
                "yfov": 0.8765124678611755,
                "zfar": 2.0,
                "aspectRatio": 1.3333333730697632
            },
            "type": "perspective",
            "name": "render_camera3"
        }
    ],
    "materials": [
        {
            "pbrMetallicRoughness": {
                "baseColorFactor": [
                    0.4910212755203247,
                    0.4910212755203247,
                    0.4910212755203247,
                    1.0
                ],
                "metallicFactor": 0.0,
                "roughnessFactor": 0.4000000059604645
            },
            "name": "Default Material"
        },
        {
            "pbrMetallicRoughness": {
                "baseColorFactor": [
                    0.06662617623806,
                    0.552010715007782,
                    0.913098156452179,
                    1.0
                ],
                "metallicFactor": 0.0,
                "roughnessFactor": 0.4000000059604645
            },
            "name": "Default Material 2"
        },
        {
            "pbrMetallicRoughness": {
                "baseColorFactor": [
                    0.6307567954063416,
                    0.6307567954063416,
                    0.6307567954063416,
                    1.0
                ],
                "metallicFactor": 0.0,
                "roughnessFactor": 0.4000000059604645
            },
            "name": "Default Material 3"
        },
        {
            "pbrMetallicRoughness": {
                "baseColorFactor": [
                    0.33245158195495608,
                    0.31398874521255495,
                    0.04373502731323242,
                    1.0
                ],
                "metallicFactor": 0.0,
                "roughnessFactor": 0.5946000218391419
            },
            "name": "Lid Material"
        },
        {
            "pbrMetallicRoughness": {
                "baseColorFactor": [
                    0.1778884083032608,
                    0.01228648703545332,
                    0.01228648703545332,
                    1.0
                ],
                "metallicFactor": 0.0,
                "roughnessFactor": 0.0
            },
            "name": "Bottle Material"
        }
    ],
    "meshes": [
        {
            "name": "TextMesh#",
            "primitives": [
                {
                    "attributes": {
                        "TEXCOORD_0": 2,
                        "NORMAL": 1,
                        "POSITION": 0
                    },
                    "indices": 3,
                    "material": 0
                },
                {
                    "attributes": {
                        "POSITION": 0,
                        "NORMAL": 1,
                        "TEXCOORD_0": 2
                    },
                    "indices": 4,
                    "material": 1
                },
                {
                    "attributes": {
                        "TEXCOORD_0": 2,
                        "NORMAL": 1,
                        "POSITION": 0
                    },
                    "indices": 5,
                    "material": 2
                }
            ]
        },
        {
            "name": "TextMesh#",
            "primitives": [
                {
                    "attributes": {
                        "POSITION": 6,
                        "NORMAL": 7,
                        "TEXCOORD_0": 8
                    },
                    "indices": 9,
                    "material": 0
                },
                {
                    "attributes": {
                        "TEXCOORD_0": 8,
                        "NORMAL": 7,
                        "POSITION": 6
                    },
                    "indices": 10,
                    "material": 1
                },
                {
                    "attributes": {
                        "POSITION": 6,
                        "NORMAL": 7,
                        "TEXCOORD_0": 8
                    },
                    "indices": 11,
                    "material": 2
                }
            ]
        },
        {
            "name": "TextMesh#",
            "primitives": [
                {
                    "attributes": {
                        "TEXCOORD_0": 14,
                        "NORMAL": 13,
                        "POSITION": 12
                    },
                    "indices": 15,
                    "material": 2
                },
                {
                    "attributes": {
                        "POSITION": 12,
                        "NORMAL": 13,
                        "TEXCOORD_0": 14
                    },
                    "indices": 16,
                    "material": 1
                },
                {
                    "attributes": {
                        "TEXCOORD_0": 14,
                        "NORMAL": 13,
                        "POSITION": 12
                    },
                    "indices": 17,
                    "material": 2
                }
            ]
        },
        {
            "name": "Lid",
            "primitives": [
                {
                    "attributes": {
                        "TEXCOORD_0": 20,
                        "NORMAL": 19,
                        "POSITION": 18
                    },
                    "indices": 21,
                    "material": 3
                }
            ]
        },
        {
            "name": "Bottle",
            "primitives": [
                {
                    "attributes": {
                        "POSITION": 22,
                        "NORMAL": 23,
                        "TEXCOORD_0": 24
                    },
                    "indices": 25,
                    "material": 4
                }
            ]
        },
        {
            "name": "Safety Ring",
            "primitives": [
                {
                    "attributes": {
                        "POSITION": 26,
                        "NORMAL": 27,
                        "TEXCOORD_0": 28
                    },
                    "indices": 29,
                    "material": 3
                }
            ]
        }
    ],
    "nodes": [
        {
            "translation": [
                0.044627588242292407,
                0.08436156809329987,
                -0.017576027661561967
            ],
            "rotation": [
                -0.07823609560728073,
                0.4827203154563904,
                0.04334982857108116,
                0.8711951375007629
            ],
            "camera": 0,
            "name": "render_camera_n3d"
        },
        {
            "translation": [
                -0.15406876802444459,
                0.00165039103012532,
                -0.08223878592252732
            ],
            "rotation": [
                0.0,
                0.366501122713089,
                0.0,
                0.9304175972938538
            ],
            "scale": [
                0.8818902373313904,
                1.0,
                2.8343007564544679
            ],
            "mesh": 0,
            "name": "Text"
        },
        {
            "translation": [
                -0.20661069452762605,
                0.0016503905644640327,
                -0.25964197516441347
            ],
            "rotation": [
                0.0,
                0.3665010929107666,
                0.0,
                0.9304175972938538
            ],
            "scale": [
                0.8818901777267456,
                1.0,
                2.8343005180358888
            ],
            "mesh": 1,
            "name": "Text 2"
        },
        {
            "translation": [
                -0.30675867199897768,
                0.0016503905644640327,
                -0.05009125545620918
            ],
            "rotation": [
                0.0,
                0.366501122713089,
                0.0,
                0.9304175972938538
            ],
            "scale": [
                0.8818902373313904,
                1.0,
                2.8343007564544679
            ],
            "mesh": 2,
            "name": "Text 3"
        },
        {
            "translation": [
                0.019911859184503557,
                0.08860278129577637,
                -0.006084566004574299
            ],
            "rotation": [
                -0.07823609560728073,
                0.4827203154563904,
                0.04334982857108116,
                0.8711951375007629
            ],
            "camera": 1,
            "name": "View 1"
        },
        {
            "children": [
                6,
                7,
                8
            ],
            "translation": [
                -0.18805983662605287,
                0.020335692912340165,
                -0.2779102325439453
            ],
            "rotation": [
                0.6929114460945129,
                0.3694622814655304,
                -0.14097446203231812,
                0.6029075980186462
            ],
            "scale": [
                1.0000001192092896,
                1.0,
                1.0000001192092896
            ],
            "name": "Square Bottle"
        },
        {
            "mesh": 3,
            "name": "Lid"
        },
        {
            "mesh": 4,
            "name": "Bottle"
        },
        {
            "mesh": 5,
            "name": "Safety Ring"
        }
    ],
    "scenes": [
        {
            "nodes": [
                0,
                1,
                2,
                3,
                4,
                5
            ],
            "name": "scene"
        }
    ],
    "scene": 0,
    "extensions": {
        "KHR_xmp": {
            "packets": [
                {
                    "dc:date": "2020-05-20T15:16:15.881+10:00",
                    "dc:format": "model/gltf+json",
                    "dc:title": "npo.dn",
                    "xmp:CreatorTool": "Adobe Dimension"
                }
            ]
        }
    },
    "extensionsUsed": [
        "KHR_xmp"
    ]
}